<svg width="32" height="32" viewBox="0 0 32 32" fill="red" xmlns="http://www.w3.org/2000/svg">
<path d="M10.2667 21.7332C10.5111 21.9776 10.8222 22.0998 11.2 22.0998C11.5778 22.0998 11.8889 21.9776 12.1334 21.7332L16 17.8665L19.9 21.7665C20.1445 22.0109 20.4502 22.1274 20.8174 22.1158C21.1836 22.1052 21.4889 21.9776 21.7334 21.7332C21.9778 21.4887 22.1 21.1776 22.1 20.7998C22.1 20.4221 21.9778 20.1109 21.7334 19.8665L17.8667 15.9998L21.7667 12.0998C22.0111 11.8554 22.1276 11.5496 22.116 11.1825C22.1054 10.8163 21.9778 10.5109 21.7334 10.2665C21.4889 10.0221 21.1778 9.89984 20.8 9.89984C20.4222 9.89984 20.1111 10.0221 19.8667 10.2665L16 14.1332L12.1 10.2332C11.8556 9.98873 11.5502 9.87184 11.184 9.8825C10.8169 9.89406 10.5111 10.0221 10.2667 10.2665C10.0222 10.5109 9.90002 10.8221 9.90002 11.1998C9.90002 11.5776 10.0222 11.8887 10.2667 12.1332L14.1334 15.9998L10.2334 19.8998C9.98891 20.1443 9.87246 20.4496 9.88402 20.8158C9.89469 21.1829 10.0222 21.4887 10.2667 21.7332ZM16 29.3332C14.1556 29.3332 12.4222 28.9829 10.8 28.2825C9.1778 27.5829 7.76669 26.6332 6.56669 25.4332C5.36669 24.2332 4.41691 22.8221 3.71735 21.1998C3.01691 19.5776 2.66669 17.8443 2.66669 15.9998C2.66669 14.1554 3.01691 12.4221 3.71735 10.7998C4.41691 9.17762 5.36669 7.7665 6.56669 6.5665C7.76669 5.3665 9.1778 4.41628 10.8 3.71584C12.4222 3.01628 14.1556 2.6665 16 2.6665C17.8445 2.6665 19.5778 3.01628 21.2 3.71584C22.8222 4.41628 24.2334 5.3665 25.4334 6.5665C26.6334 7.7665 27.5831 9.17762 28.2827 10.7998C28.9831 12.4221 29.3334 14.1554 29.3334 15.9998C29.3334 17.8443 28.9831 19.5776 28.2827 21.1998C27.5831 22.8221 26.6334 24.2332 25.4334 25.4332C24.2334 26.6332 22.8222 27.5829 21.2 28.2825C19.5778 28.9829 17.8445 29.3332 16 29.3332ZM16 26.6665C18.9556 26.6665 21.4725 25.6278 23.5507 23.5505C25.628 21.4723 26.6667 18.9554 26.6667 15.9998C26.6667 13.0443 25.628 10.5274 23.5507 8.44917C21.4725 6.37184 18.9556 5.33317 16 5.33317C13.0445 5.33317 10.528 6.37184 8.45069 8.44917C6.37246 10.5274 5.33335 13.0443 5.33335 15.9998C5.33335 18.9554 6.37246 21.4723 8.45069 23.5505C10.528 25.6278 13.0445 26.6665 16 26.6665Z" fill="#202020"/>
</svg>
