<svg width="45" height="45" viewBox="0 0 45 45" fill="none" xmlns="http://www.w3.org/2000/svg">
<circle cx="22.5" cy="22.5" r="22.5" fill="#EEEEEE"/>
<g clip-path="url(#clip0_362_332)">
<path d="M31.4844 32.6562V10.7812H13.5156V32.6562H10.7812V34.2188H34.2188V32.6562H31.4844ZM29.9219 32.6562H23.2812V29.5312H21.7188V32.6562H15.0781V12.3438H29.9219V32.6562Z" fill="#1B1B1B"/>
<path d="M17.8125 24.8438H19.375V26.4062H17.8125V24.8438ZM21.7188 24.8438H23.2812V26.4062H21.7188V24.8438ZM25.625 24.8438H27.1875V26.4062H25.625V24.8438ZM17.8125 20.1562H19.375V21.7188H17.8125V20.1562ZM21.7188 20.1562H23.2812V21.7188H21.7188V20.1562ZM25.625 20.1562H27.1875V21.7188H25.625V20.1562ZM17.8125 15.4688H19.375V17.0312H17.8125V15.4688ZM21.7188 15.4688H23.2812V17.0312H21.7188V15.4688ZM25.625 15.4688H27.1875V17.0312H25.625V15.4688Z" fill="#1B1B1B"/>
</g>
<defs>
<clipPath id="clip0_362_332">
<rect width="25" height="25" fill="white" transform="translate(10 10)"/>
</clipPath>
</defs>
</svg>
