<svg width="46" height="45" viewBox="0 0 46 45" fill="none" xmlns="http://www.w3.org/2000/svg">
<circle cx="23" cy="22.5" r="22.5" fill="#EEEEEE"/>
<path d="M13.6391 18.6468V18.6327C13.639 17.2374 14.0523 15.8734 14.8266 14.7127C15.601 13.5521 16.7017 12.6467 17.99 12.1109C19.2783 11.5752 20.6965 11.433 22.0655 11.7023C23.4345 11.9716 24.6931 12.6403 25.6825 13.6242C26.461 13.2399 27.3305 13.0784 28.195 13.1574C29.0595 13.2363 29.8853 13.5528 30.5813 14.0717C31.2772 14.5906 31.8161 15.2918 32.1386 16.0978C32.461 16.9038 32.5543 17.7833 32.4082 18.639C32.623 18.6589 32.8313 18.7229 33.0203 18.827C33.2092 18.931 33.3747 19.0729 33.5064 19.2437C33.638 19.4146 33.7331 19.6107 33.7856 19.8199C33.838 20.0292 33.8468 20.2469 33.8114 20.4597C33.102 24.7274 31.3472 27.4287 28.5502 28.5651V29.6198C28.5502 30.2442 28.3021 30.8431 27.8606 31.2846C27.419 31.7262 26.8202 31.9742 26.1958 31.9742H19.9174C19.293 31.9742 18.6942 31.7262 18.2526 31.2846C17.8111 30.8431 17.563 30.2442 17.563 29.6198V28.5651C14.766 27.4287 13.0112 24.7274 12.3018 20.4597C12.2675 20.2526 12.2752 20.0407 12.3243 19.8366C12.3734 19.6325 12.4629 19.4403 12.5876 19.2714C12.7123 19.1025 12.8696 18.9604 13.0502 18.8534C13.2308 18.7464 13.4311 18.6767 13.6391 18.6484V18.6468ZM15.2087 18.6327H16.7782C16.7782 17.592 17.1917 16.5939 17.9275 15.858C18.6634 15.1222 19.6615 14.7087 20.7022 14.7087C21.7429 14.7087 22.741 15.1222 23.4769 15.858C24.2128 16.5939 24.6262 17.592 24.6262 18.6327H26.1958C26.1958 17.1757 25.617 15.7784 24.5867 14.7482C23.5565 13.7179 22.1592 13.1391 20.7022 13.1391C19.2452 13.1391 17.8479 13.7179 16.8177 14.7482C15.7874 15.7784 15.2087 17.1757 15.2087 18.6327ZM18.3478 18.6327H23.0566C23.0566 18.0083 22.8085 17.4094 22.367 16.9679C21.9255 16.5264 21.3266 16.2783 20.7022 16.2783C20.0778 16.2783 19.4789 16.5264 19.0374 16.9679C18.5959 17.4094 18.3478 18.0083 18.3478 18.6327ZM29.1246 18.6327H30.8056C30.9241 18.1688 30.9352 17.6841 30.8379 17.2153C30.7407 16.7465 30.5377 16.3061 30.2445 15.9277C29.9513 15.5492 29.5756 15.2427 29.1459 15.0315C28.7163 14.8202 28.2441 14.7098 27.7654 14.7087C27.3887 14.7087 27.0308 14.7747 26.698 14.8955C26.9759 15.3413 27.205 15.8216 27.3808 16.3254C27.6798 16.2513 27.9939 16.2665 28.2843 16.3693C28.5746 16.4721 28.8284 16.6579 29.0141 16.9036C29.1998 17.1493 29.3093 17.4442 29.3289 17.7516C29.3486 18.059 29.2775 18.3653 29.1246 18.6327ZM26.9806 28.835H19.1326V29.6198C19.1326 29.828 19.2153 30.0276 19.3625 30.1748C19.5097 30.3219 19.7093 30.4046 19.9174 30.4046H26.1958C26.4039 30.4046 26.6035 30.3219 26.7507 30.1748C26.8979 30.0276 26.9806 29.828 26.9806 29.6198V28.835ZM18.5801 27.2654H27.5331C30.0224 26.465 31.5983 24.2016 32.2638 20.2023H13.8494C14.5149 24.2016 16.0908 26.465 18.5801 27.2654Z" fill="#1B1B1B"/>
</svg>
