<svg width="45" height="45" viewBox="0 0 45 45" fill="none" xmlns="http://www.w3.org/2000/svg">
<circle cx="22.5" cy="22.5" r="22.5" fill="#EEEEEE"/>
<path d="M31.875 11.5625H22.5C22.0857 11.5629 21.6885 11.7277 21.3956 12.0206C21.1027 12.3135 20.9379 12.7107 20.9375 13.125V20.9375H13.125C12.7107 20.9379 12.3135 21.1027 12.0206 21.3956C11.7277 21.6885 11.5629 22.0857 11.5625 22.5V33.4375H33.4375V13.125C33.4371 12.7107 33.2723 12.3135 32.9794 12.0206C32.6865 11.7277 32.2893 11.5629 31.875 11.5625ZM17.0312 31.875V26.4062H20.1562V31.875H17.0312ZM31.875 31.875H21.7188V25.625C21.7188 25.4178 21.6364 25.2191 21.4899 25.0726C21.3434 24.9261 21.1447 24.8438 20.9375 24.8438H16.25C16.0428 24.8438 15.8441 24.9261 15.6976 25.0726C15.5511 25.2191 15.4688 25.4178 15.4688 25.625V31.875H13.125V22.5H22.5V13.125H31.875V31.875Z" fill="#1B1B1B"/>
<path d="M24.0625 16.25H25.625V17.8125H24.0625V16.25ZM28.75 16.25H30.3125V17.8125H28.75V16.25ZM24.0625 20.9375H25.625V22.5H24.0625V20.9375ZM28.75 20.9375H30.3125V22.5H28.75V20.9375ZM24.0625 25.625H25.625V27.1875H24.0625V25.625ZM28.75 25.625H30.3125V27.1875H28.75V25.625ZM17.0312 19.375H15.4688C15.47 18.3394 15.8819 17.3465 16.6142 16.6142C17.3465 15.8819 18.3394 15.47 19.375 15.4688V17.0312C18.7536 17.0319 18.1578 17.279 17.7184 17.7184C17.279 18.1578 17.0319 18.7536 17.0312 19.375ZM13.125 19.375H11.5625C11.5648 17.3037 12.3886 15.3179 13.8532 13.8532C15.3179 12.3886 17.3037 11.5648 19.375 11.5625V13.125C17.718 13.1271 16.1295 13.7862 14.9579 14.9579C13.7862 16.1295 13.1271 17.718 13.125 19.375Z" fill="#1B1B1B"/>
</svg>
