<svg width="45" height="45" viewBox="0 0 45 45" fill="none" xmlns="http://www.w3.org/2000/svg">
<circle cx="22.5" cy="22.5" r="22.5" fill="#EEEEEE"/>
<g clip-path="url(#clip0_362_362)">
<path d="M21.3281 16.6406C21.7199 16.6408 22.1054 16.5427 22.4495 16.3554C22.7936 16.1681 23.0852 15.8975 23.2978 15.5684C23.5103 15.2393 23.637 14.8622 23.6661 14.4715C23.6953 14.0808 23.6261 13.6891 23.4648 13.332C23.8102 13.4883 24.1124 13.726 24.3457 14.0247C24.5791 14.3235 24.7364 14.6743 24.8044 15.0472C24.8723 15.4201 24.8488 15.8039 24.7359 16.1657C24.6229 16.5276 24.4239 16.8566 24.1559 17.1246C23.8878 17.3926 23.5588 17.5917 23.197 17.7046C22.8352 17.8176 22.4514 17.8411 22.0785 17.7731C21.7056 17.7052 21.3547 17.5478 21.056 17.3145C20.7572 17.0812 20.5195 16.7789 20.3633 16.4336C20.6578 16.5664 20.9844 16.6406 21.3281 16.6406Z" fill="#1B1B1B"/>
<path d="M14.6875 10.7812C14.1745 10.7812 13.6666 10.8823 13.1926 11.0786C12.7187 11.2749 12.2881 11.5626 11.9254 11.9254C11.1928 12.6579 10.7812 13.6515 10.7812 14.6875V30.3125C10.7812 31.3485 11.1928 32.3421 11.9254 33.0746C12.2881 33.4374 12.7187 33.7251 13.1926 33.9214C13.6666 34.1177 14.1745 34.2188 14.6875 34.2188H30.3125C31.3485 34.2188 32.3421 33.8072 33.0746 33.0746C33.8072 32.3421 34.2188 31.3485 34.2188 30.3125V14.6875C34.2188 14.1745 34.1177 13.6666 33.9214 13.1926C33.7251 12.7187 33.4374 12.2881 33.0746 11.9254C32.7119 11.5626 32.2813 11.2749 31.8074 11.0786C31.3334 10.8823 30.8255 10.7812 30.3125 10.7812H14.6875ZM12.3438 14.6875C12.3438 14.0659 12.5907 13.4698 13.0302 13.0302C13.4698 12.5907 14.0659 12.3438 14.6875 12.3438H30.3125C30.9341 12.3438 31.5302 12.5907 31.9698 13.0302C32.4093 13.4698 32.6562 14.0659 32.6562 14.6875V20.3906C31.6672 19.8711 30.982 19.0469 30.5055 18.2062C30.1667 17.598 29.9026 16.9512 29.7188 16.2797C29.6446 16.0136 29.5836 15.744 29.5359 15.4719L29.5312 15.4359C29.5223 15.235 29.4361 15.0452 29.2907 14.9062C29.1453 14.7672 28.9519 14.6896 28.7508 14.6896C28.5496 14.6896 28.3562 14.7672 28.2108 14.9062C28.0655 15.0452 27.9793 15.235 27.9703 15.4359L27.9648 15.4719C27.9174 15.744 27.8567 16.0136 27.7828 16.2797C27.5988 16.9512 27.3343 17.5981 26.9953 18.2062C26.207 19.5938 24.8531 20.9375 22.5 20.9375C20.1477 20.9375 18.7922 19.5938 18.0062 18.2062C17.6673 17.5981 17.4028 16.9512 17.2188 16.2797C17.1419 16.0018 17.0793 15.7202 17.0312 15.4359C17.0312 15.2287 16.9489 15.03 16.8024 14.8835C16.6559 14.737 16.4572 14.6547 16.25 14.6547C16.0428 14.6547 15.8441 14.737 15.6976 14.8835C15.5511 15.03 15.4688 15.2287 15.4688 15.4359C15.4589 15.5061 15.4469 15.5759 15.4328 15.6453C15.4031 15.7977 15.3547 16.0164 15.2812 16.2797C15.0972 16.9512 14.8328 17.5981 14.4937 18.2062C14.0172 19.0469 13.3328 19.8711 12.3438 20.3906V14.6875ZM31.875 20.8383C32.1172 20.9945 32.3766 21.1359 32.6562 21.257V24.0625H31.875V20.8383ZM29.5312 25.625H32.6562V26.9219C32.4614 26.9951 32.2741 27.0869 32.0969 27.1961L32.0945 27.1977C31.9235 27.3044 31.7414 27.3924 31.5516 27.4602C31.3492 27.5273 31.0852 27.5781 30.7031 27.5781C30.3211 27.5781 30.057 27.5273 29.8547 27.4602C29.7432 27.4226 29.635 27.3758 29.5312 27.3203V25.625ZM27.9688 25.625V26.7969C27.2906 26.7969 26.8305 27.0273 26.4391 27.2227L26.4266 27.2289C26.0391 27.4227 25.7211 27.5781 25.2344 27.5781C24.7477 27.5781 24.4297 27.4219 24.0422 27.2289L24.0297 27.2227C23.6391 27.0273 23.1781 26.7969 22.5 26.7969C21.8219 26.7969 21.3617 27.0273 20.9703 27.2227L20.9578 27.2289C20.5703 27.4227 20.2523 27.5781 19.7656 27.5781C19.2789 27.5781 18.9609 27.4219 18.5734 27.2289L18.5609 27.2227C18.1703 27.0273 17.7094 26.7969 17.0312 26.7969V25.625H27.9688ZM18.2234 27.9273L18.2359 27.9336C18.6266 28.1289 19.0875 28.3594 19.7656 28.3594C20.4438 28.3594 20.9039 28.1289 21.2953 27.9336L21.3078 27.9273C21.6953 27.7336 22.0133 27.5781 22.5 27.5781C22.9867 27.5781 23.3047 27.7344 23.6922 27.9273L23.7047 27.9336C24.0953 28.1289 24.5562 28.3594 25.2344 28.3594C25.9125 28.3594 26.3727 28.1289 26.7641 27.9336L26.7766 27.9273C27.1641 27.7336 27.482 27.5781 27.9688 27.5781V30.3125H27.1875C26.9803 30.3125 26.7816 30.3948 26.6351 30.5413C26.4886 30.6878 26.4062 30.8865 26.4062 31.0938V31.3086C26.1266 31.1867 25.7734 31.0938 25.2344 31.0938C24.3969 31.0938 24.0078 31.318 23.6484 31.5266C23.3359 31.7063 23.0437 31.875 22.5 31.875C21.9141 31.875 21.5234 31.6797 21.1328 31.4844C20.7422 31.2891 20.3516 31.0938 19.7656 31.0938C19.2766 31.0938 18.9242 31.2297 18.5938 31.3883V31.0938C18.5938 30.8865 18.5114 30.6878 18.3649 30.5413C18.2184 30.3948 18.0197 30.3125 17.8125 30.3125H17.0312V27.5781C17.518 27.5781 17.8359 27.7344 18.2234 27.9273ZM29.5312 30.3125V28.1742L29.6078 28.2008C29.8992 28.2984 30.2484 28.3594 30.7031 28.3594C31.1586 28.3594 31.5078 28.2984 31.7984 28.2008C32.0828 28.107 32.2992 27.982 32.4781 27.8789L32.4852 27.8742C32.5417 27.8414 32.5988 27.8093 32.6562 27.7781V30.3125C32.6562 30.7617 32.5297 31.182 32.3109 31.5391L32.2898 31.5266C31.9906 31.3539 31.6727 31.1695 31.0938 31.1125V31.0938C31.0938 30.8865 31.0114 30.6878 30.8649 30.5413C30.7184 30.3948 30.5197 30.3125 30.3125 30.3125H29.5312ZM13.9062 31.125C13.5234 31.1875 13.2266 31.3359 12.9297 31.4844C12.8602 31.5187 12.7906 31.5539 12.7203 31.5875C12.4738 31.208 12.3429 30.765 12.3438 30.3125V27.7344C12.4797 27.7898 12.6125 27.8563 12.7547 27.9273L12.7672 27.9336C13.1578 28.1289 13.6188 28.3594 14.2969 28.3594C14.7805 28.3594 15.1531 28.2422 15.4688 28.1047V30.3125H14.6875C14.4803 30.3125 14.2816 30.3948 14.1351 30.5413C13.9886 30.6878 13.9062 30.8865 13.9062 31.0938V31.125ZM15.4688 25.625V27.2391C15.0906 27.4281 14.775 27.5781 14.2969 27.5781C13.8102 27.5781 13.4922 27.4219 13.1047 27.2289L13.0922 27.2227C12.8528 27.0952 12.6023 26.9898 12.3438 26.9078V25.625H15.4688ZM13.125 24.0625H12.3438V21.257C12.6234 21.1359 12.8828 20.9953 13.125 20.8383V24.0625ZM27.6734 18.5906C27.7828 18.4 27.8805 18.2078 27.9688 18.0203V24.0625H26.4062V20.2266C26.9089 19.7485 27.3362 19.1969 27.6734 18.5906ZM25.625 20.8383V24.0625H24.0625V21.5258C24.6168 21.3819 25.1444 21.1498 25.625 20.8383ZM23.2812 21.6734V24.0625H21.7188V21.6727C22.2377 21.735 22.7623 21.735 23.2812 21.6727V21.6734ZM20.9375 21.525V24.0625H19.375V20.8383C19.8556 21.1498 20.3832 21.3819 20.9375 21.5258V21.525ZM18.5938 20.2258V24.0625H17.0312V18.0203C17.1195 18.2078 17.218 18.4 17.3258 18.5906C17.6461 19.157 18.0617 19.7289 18.5938 20.2258ZM29.5312 24.0625V18.0203C29.6195 18.2078 29.718 18.4 29.8266 18.5906C30.1469 19.157 30.5617 19.7289 31.0938 20.2258V24.0625H29.5312ZM15.4688 24.0625H13.9062V20.2266C14.4092 19.7485 14.8367 19.1969 15.1742 18.5906C15.282 18.4 15.3805 18.2078 15.4688 18.0203V24.0625Z" fill="#1B1B1B"/>
</g>
<defs>
<clipPath id="clip0_362_362">
<rect width="25" height="25" fill="white" transform="translate(10 10)"/>
</clipPath>
</defs>
</svg>
