<svg width="45" height="45" viewBox="0 0 45 45" fill="none" xmlns="http://www.w3.org/2000/svg">
<circle cx="22.5" cy="22.5" r="22.5" fill="#EEEEEE"/>
<path fill-rule="evenodd" clip-rule="evenodd" d="M33.0672 10.1171C33.1804 10.1871 33.2738 10.2849 33.3386 10.4011C33.4034 10.5173 33.4374 10.6481 33.4375 10.7812V34.2187C33.4375 34.4259 33.3552 34.6246 33.2087 34.7711C33.0622 34.9176 32.8635 34.9999 32.6562 34.9999H27.9688C27.7615 34.9999 27.5628 34.9176 27.4163 34.7711C27.2698 34.6246 27.1875 34.4259 27.1875 34.2187V31.8749H25.625V34.2187C25.625 34.4259 25.5427 34.6246 25.3962 34.7711C25.2497 34.9176 25.051 34.9999 24.8438 34.9999H10.7812C10.574 34.9999 10.3753 34.9176 10.2288 34.7711C10.0823 34.6246 10 34.4259 10 34.2187V25.6249C10.0001 25.461 10.0518 25.3013 10.1477 25.1684C10.2436 25.0355 10.3789 24.9361 10.5344 24.8843L19.375 21.9374V17.0312C19.375 16.8862 19.4153 16.7441 19.4915 16.6208C19.5677 16.4974 19.6766 16.3977 19.8062 16.3328L32.3062 10.0828C32.4255 10.0231 32.558 9.9949 32.6912 10.0009C32.8244 10.0069 32.9538 10.0469 33.0672 10.1171ZM19.375 23.5843L11.5625 26.1874V33.4374H19.375V23.5843ZM20.9375 33.4374H24.0625V31.0937C24.0625 30.8865 24.1448 30.6878 24.2913 30.5413C24.4378 30.3947 24.6365 30.3124 24.8438 30.3124H27.9688C28.176 30.3124 28.3747 30.3947 28.5212 30.5413C28.6677 30.6878 28.75 30.8865 28.75 31.0937V33.4374H31.875V12.0453L20.9375 17.514V33.4374Z" fill="#1B1B1B"/>
<path d="M13.125 27.1875H14.6875V28.75H13.125V27.1875ZM16.25 27.1875H17.8125V28.75H16.25V27.1875ZM13.125 30.3125H14.6875V31.875H13.125V30.3125ZM16.25 30.3125H17.8125V31.875H16.25V30.3125ZM22.5 24.0625H24.0625V25.625H22.5V24.0625ZM25.625 24.0625H27.1875V25.625H25.625V24.0625ZM22.5 27.1875H24.0625V28.75H22.5V27.1875ZM25.625 27.1875H27.1875V28.75H25.625V27.1875ZM28.75 24.0625H30.3125V25.625H28.75V24.0625ZM28.75 27.1875H30.3125V28.75H28.75V27.1875ZM22.5 20.9375H24.0625V22.5H22.5V20.9375ZM25.625 20.9375H27.1875V22.5H25.625V20.9375ZM28.75 20.9375H30.3125V22.5H28.75V20.9375ZM22.5 17.8125H24.0625V19.375H22.5V17.8125ZM25.625 17.8125H27.1875V19.375H25.625V17.8125ZM28.75 17.8125H30.3125V19.375H28.75V17.8125ZM28.75 14.6875H30.3125V16.25H28.75V14.6875Z" fill="#1B1B1B"/>
</svg>
