<svg width="38" height="38" viewBox="0 0 38 38" fill="none" xmlns="http://www.w3.org/2000/svg">
<circle cx="19" cy="18.9553" r="18.8547" fill="#DEF5EE"/>
<path d="M27.1452 15.1006H24.1452V13.1006C24.1452 12.0006 23.2452 11.1006 22.1452 11.1006H16.1452C15.0452 11.1006 14.1452 12.0006 14.1452 13.1006V15.1006H11.1452C10.0452 15.1006 9.14525 16.0006 9.14525 17.1006V27.1006H29.1452V17.1006C29.1452 16.0006 28.2452 15.1006 27.1452 15.1006ZM16.1452 13.1006H22.1452V15.1006H16.1452V13.1006ZM27.1452 25.1006H11.1452V22.1006H13.1452V23.1006H15.1452V22.1006H23.1452V23.1006H25.1452V22.1006H27.1452V25.1006ZM25.1452 20.1006V19.1006H23.1452V20.1006H15.1452V19.1006H13.1452V20.1006H11.1452V17.1006H27.1452V20.1006H25.1452Z" fill="#2ED081"/>
</svg>
