<svg width="38" height="38" viewBox="0 0 38 38" fill="none" xmlns="http://www.w3.org/2000/svg">
<circle cx="19" cy="18.9553" r="18.8547" fill="#DEF5EE"/>
<g clip-path="url(#clip0_53_329)">
<path d="M18.933 18.486C20.743 18.486 22.1508 17.0112 22.1508 15.2011C22.1508 13.3911 20.676 11.9832 18.8659 11.9832C17.0559 11.9832 15.648 13.4581 15.648 15.2011C15.648 17.0112 17.1229 18.486 18.933 18.486ZM18.8659 13.324C18.933 13.324 18.933 13.324 18.8659 13.324C19.9385 13.324 20.81 14.1955 20.81 15.2682C20.81 16.3408 19.9385 17.1453 18.8659 17.1453C17.7933 17.1453 16.9888 16.2737 16.9888 15.2682C16.9888 14.1955 17.8603 13.324 18.8659 13.324Z" fill="#2ED081"/>
<path d="M28.8547 18.0838C27.581 16.9442 25.905 16.3408 24.162 16.4078H23.6257C23.4916 16.9442 23.2905 17.4134 23.0223 17.8157C23.4246 17.7486 23.7598 17.7486 24.162 17.7486C25.4357 17.6816 26.7095 18.0838 27.7151 18.8213V23.6481H29.0559V18.2849L28.8547 18.0838Z" fill="#2ED081"/>
<path d="M22.6201 12.1173C22.9553 11.3129 23.8938 10.9106 24.7654 11.2458C25.5698 11.581 25.9721 12.5196 25.6369 13.3911C25.3687 13.9944 24.7654 14.3967 24.162 14.3967C24.0279 14.3967 23.8268 14.3967 23.6927 14.3296C23.7598 14.6648 23.7598 15 23.7598 15.2682V15.6704C23.8938 15.6704 24.0279 15.7374 24.162 15.7374C25.838 15.7374 27.1788 14.3967 27.1788 12.7877C27.1788 11.1117 25.838 9.77097 24.229 9.77097C23.1564 9.77097 22.2179 10.3073 21.6816 11.2458C22.0168 11.4469 22.3519 11.7151 22.6201 12.1173Z" fill="#2ED081"/>
<path d="M14.9776 17.8827C14.7095 17.4805 14.5084 17.0112 14.3743 16.4749H13.838C12.095 16.4078 10.419 17.0112 9.14525 18.0838L8.94413 18.2849V23.6481H10.2849V18.8212C11.3575 18.0838 12.5642 17.6816 13.838 17.7486C14.2402 17.7486 14.6425 17.8157 14.9776 17.8827Z" fill="#2ED081"/>
<path d="M13.838 15.6704C13.9721 15.6704 14.1061 15.6704 14.2402 15.6034V15.2011C14.2402 14.8659 14.2402 14.5307 14.3073 14.2626C14.1732 14.3296 13.9721 14.3296 13.838 14.3296C12.9665 14.3296 12.229 13.5922 12.229 12.7207C12.229 11.8492 12.9665 11.1117 13.838 11.1117C14.5084 11.1117 15.1117 11.514 15.3799 12.1173C15.648 11.7821 16.0503 11.4469 16.3855 11.1788C15.514 9.77095 13.7039 9.30168 12.2961 10.1732C10.8883 11.0447 10.419 12.8548 11.2905 14.2626C11.8268 15.1341 12.7654 15.6704 13.838 15.6704Z" fill="#2ED081"/>
<path d="M24.4302 22.1062L24.2961 21.905C22.9553 20.4302 21.0782 19.5587 19.067 19.6257C17.0559 19.5587 15.1117 20.4302 13.7709 21.905L13.6369 22.1062V27.2011C13.6369 27.8045 14.1061 28.3408 14.7765 28.3408H23.3575C23.9609 28.3408 24.4972 27.8045 24.4972 27.2011V22.1062H24.4302ZM23.0894 27H14.9776V22.5754C16.0503 21.5028 17.5251 20.9665 19.067 20.9665C20.5419 20.8995 22.0167 21.5028 23.0894 22.5754V27Z" fill="#2ED081"/>
</g>
<defs>
<clipPath id="clip0_53_329">
<rect width="24.1341" height="24.1341" fill="white" transform="translate(6.93296 6.88828)"/>
</clipPath>
</defs>
</svg>
