<svg width="38" height="39" viewBox="0 0 38 39" fill="none" xmlns="http://www.w3.org/2000/svg">
<circle cx="19" cy="19.8184" r="18.8547" fill="#DEF5EE"/>
<path d="M28.1452 20.1837C28.1452 14.6937 23.8852 10.9637 19.1452 10.9637C14.4552 10.9637 10.1452 14.6137 10.1452 20.2437C9.54525 20.5837 9.14525 21.2237 9.14525 21.9637V23.9637C9.14525 25.0637 10.0452 25.9637 11.1452 25.9637H12.1452V19.8637C12.1452 15.9937 15.2752 12.8637 19.1452 12.8637C23.0152 12.8637 26.1452 15.9937 26.1452 19.8637V26.9637H18.1452V28.9637H26.1452C27.2452 28.9637 28.1452 28.0637 28.1452 26.9637V25.7437C28.7352 25.4337 29.1452 24.8237 29.1452 24.1037V21.8037C29.1452 21.1037 28.7352 20.4937 28.1452 20.1837Z" fill="#2ED081"/>
<path d="M16.1452 21.9637C16.6975 21.9637 17.1452 21.516 17.1452 20.9637C17.1452 20.4114 16.6975 19.9637 16.1452 19.9637C15.593 19.9637 15.1452 20.4114 15.1452 20.9637C15.1452 21.516 15.593 21.9637 16.1452 21.9637Z" fill="#2ED081"/>
<path d="M22.1453 21.9637C22.6975 21.9637 23.1453 21.516 23.1453 20.9637C23.1453 20.4114 22.6975 19.9637 22.1453 19.9637C21.593 19.9637 21.1453 20.4114 21.1453 20.9637C21.1453 21.516 21.593 21.9637 22.1453 21.9637Z" fill="#2ED081"/>
<path d="M25.1452 18.9937C24.9068 17.5878 24.1787 16.3116 23.0897 15.3911C22.0007 14.4705 20.6212 13.9649 19.1952 13.9637C16.1652 13.9637 12.9052 16.4737 13.1652 20.4137C14.3984 19.9091 15.4875 19.1072 16.3355 18.0795C17.1835 17.0518 17.764 15.8302 18.0252 14.5237C19.3352 17.1537 22.0252 18.9637 25.1452 18.9937Z" fill="#2ED081"/>
</svg>
